<svg width="518" height="151" viewBox="0 0 518 151" fill="none" xmlns="http://www.w3.org/2000/svg">
<path d="M5.96046e-08 11.3998C15.4667 10.3331 29.0667 9.7998 40.8 9.7998C73.8667 9.7998 90.4 21.4665 90.4 44.7998C90.4 55.5998 87.6 65.0665 82 73.1998C79.0667 77.5998 74.5333 81.1331 68.4 83.7998C62.2667 86.3331 54.8667 87.5998 46.2 87.5998H16.6V149.8H5.96046e-08V11.3998ZM41 11.7998C33.2667 11.7998 25.1333 12.2665 16.6 13.1998V85.5998H46.2C65 84.7998 74.4 71.3331 74.4 45.1998C74.4 34.5331 71.6 26.3331 66 20.5998C60.4 14.7331 52.0667 11.7998 41 11.7998ZM131.9 149.8C120.167 149.8 112.767 146.733 109.7 140.6C109.033 139.266 108.7 138.066 108.7 137V-0.000197887H122.7V135.6C122.7 139.466 123.433 142.466 124.9 144.6C126.5 146.6 128.1 147.666 129.7 147.8L131.9 148.2H138.1V149.8H131.9ZM231.873 149.8C222.807 149.8 216.607 148.066 213.273 144.6C210.207 141.666 208.673 139.133 208.673 137V132.8C202.14 144.666 191.673 150.6 177.273 150.6C160.473 150.6 150.94 143 148.673 127.8C148.407 126.2 148.273 124.6 148.273 123C148.273 121.266 148.54 119.4 149.073 117.4C149.607 115.4 151.14 113.2 153.673 110.8C158.74 106 169.873 103.066 187.073 102C191.34 101.6 195.273 101.4 198.873 101.4C202.473 101.4 205.74 101.533 208.673 101.8V68.5998C208.407 68.4665 208.407 67.8665 208.673 66.7998C208.94 65.5998 208.673 64.1331 207.873 62.3998C207.207 60.5331 206.273 58.7331 205.073 56.9998C203.873 55.2665 201.74 53.7998 198.673 52.5998C195.607 51.2665 191.607 50.5998 186.673 50.5998C181.74 50.5998 175.94 51.5331 169.273 53.3998C162.74 55.1331 157.94 56.8665 154.873 58.5998L154.073 57.1998C165.94 51.7331 178.007 48.9998 190.273 48.9998C204.007 48.9998 213.073 51.4665 217.473 56.3998C220.94 60.2665 222.673 64.3331 222.673 68.5998V135.6C222.673 139.466 223.407 142.466 224.873 144.6C226.473 146.6 228.073 147.666 229.673 147.8L231.873 148.2H238.073V149.8H231.873ZM180.473 149C187.54 149 193.873 146.6 199.473 141.8C205.207 136.866 208.273 132.133 208.673 127.6V103.4C205.073 103.133 201.407 103 197.673 103C194.073 103 190.473 103.2 186.873 103.6C176.74 104.8 170.14 107.066 167.073 110.4C164.007 113.733 162.473 118.333 162.473 124.2C162.473 125.266 162.54 126.466 162.673 127.8C163.873 141.933 169.807 149 180.473 149ZM251.984 51.3998V49.7998H256.184V29.7998H270.184V49.7998H300.784V51.3998H270.184V124.2C270.184 132.866 271.118 139.133 272.984 143C274.984 146.866 279.051 148.8 285.184 148.8C291.451 148.8 297.784 147.533 304.184 145L304.784 146.6C298.118 149.133 290.451 150.4 281.784 150.4C273.251 150.4 266.851 148.666 262.584 145.2C258.318 141.6 256.184 134.533 256.184 124V51.3998H251.984ZM327.327 101C327.327 117.533 330.193 129.666 335.927 137.4C341.793 145.133 349.46 149 358.927 149C372.26 149 384.127 147 394.527 143L395.127 144.4C384.46 148.533 372.393 150.6 358.927 150.6C345.593 150.6 334.727 146.6 326.327 138.6C317.927 130.6 313.727 118.266 313.727 101.6C313.727 84.9331 318.127 71.9998 326.927 62.7998C335.727 53.5998 346.927 48.9998 360.527 48.9998C371.46 48.9998 380.66 52.2665 388.127 58.7998C395.593 65.3331 399.327 74.9998 399.327 87.7998C399.327 88.4665 399.327 89.1331 399.327 89.7998H327.927C327.527 93.3998 327.327 97.1331 327.327 101ZM385.727 88.1998C385.593 75.3998 383.127 65.9331 378.327 59.7998C373.527 53.6665 367.327 50.5998 359.727 50.5998C352.127 50.5998 345.327 53.9331 339.327 60.5998C333.46 67.2665 329.727 76.4665 328.127 88.1998H385.727ZM413.531 103.4C413.531 86.0665 417.731 72.6665 426.131 63.1998C434.531 53.7331 447.131 48.9998 463.931 48.9998C471.798 48.9998 479.731 50.9998 487.731 54.9998V-0.000197887H501.731V135.6C501.731 139.466 502.465 142.466 503.931 144.6C505.531 146.6 507.131 147.666 508.731 147.8L510.931 148.2H517.131V149.8H504.931C499.465 149.8 495.265 148.6 492.331 146.2C489.531 143.8 488.065 141.4 487.931 139L487.731 135.6V132.4C485.198 137.066 480.998 141.2 475.131 144.8C469.265 148.4 462.331 150.2 454.331 150.2C427.131 149.533 413.531 133.933 413.531 103.4ZM454.531 148.6C463.465 148.6 471.131 146.2 477.531 141.4C483.931 136.6 487.331 131.866 487.731 127.2V56.7998C478.265 52.6665 470.131 50.5998 463.331 50.5998C451.465 50.5998 442.531 55.2665 436.531 64.5998C430.531 73.7998 427.531 86.7331 427.531 103.4C427.531 133.533 436.531 148.6 454.531 148.6Z" fill="#1B1B1B"/>
</svg>
